<svg width="654" height="148" viewBox="0 0 654 148" fill="none" xmlns="http://www.w3.org/2000/svg">
<path d="M83.3 56.875L2.10001 17.075C0.900006 16.475 0 17.075 0 18.375V103.875C0 105.175 0.900006 106.675 2.10001 107.275L83.3 147.075C83.4 147.175 83.6 147.175 83.8 147.075L165 107.275C166.2 106.675 167.1 105.175 167.1 103.875V18.375C167.1 17.075 166.2 16.475 165 17.075L83.8 56.875C83.7 56.975 83.5 56.975 83.3 56.875ZM140.3 86.075C140.3 87.375 139.4 88.875 138.2 89.475L83.8 116.175C83.7 116.275 83.5 116.275 83.3 116.175L28.9 89.475C27.8 88.875 26.8 87.375 26.8 86.075V60.575C26.8 59.275 27.7 58.675 28.9 59.275L83.3 85.975C83.4 86.075 83.6 86.075 83.8 85.975L138.2 59.275C139.4 58.675 140.3 59.275 140.3 60.575V86.075ZM83.4 31.675L52.8 16.875C51.6 16.275 51.6 15.375 52.8 14.875L83.4 0.075C83.5 -0.025 83.7 -0.025 83.9 0.075L114.5 14.875C115.7 15.475 115.7 16.375 114.5 16.875L83.9 31.675C83.7 31.775 83.5 31.775 83.4 31.675Z" fill="#E50044"/>
<path d="M222.2 91.544H227.704C234.019 91.544 238.541 90.7333 241.272 89.112C244.003 87.4907 245.368 84.888 245.368 81.304C245.368 77.72 244.003 75.1173 241.272 73.496C238.541 71.8747 234.019 71.064 227.704 71.064H222.2V91.544ZM222.2 52.376H226.808C234.659 52.376 238.584 49.2613 238.584 43.032C238.584 36.8027 234.659 33.688 226.808 33.688H222.2V52.376ZM197.112 14.488H234.488C243.363 14.488 250.104 16.6213 254.712 20.888C259.32 25.1547 261.624 31.2987 261.624 39.32C261.624 44.184 260.728 48.2373 258.936 51.48C257.229 54.6373 254.584 57.3253 251 59.544C254.584 60.2267 257.613 61.2933 260.088 62.744C262.648 64.1093 264.696 65.816 266.232 67.864C267.853 69.912 269.005 72.216 269.688 74.776C270.371 77.336 270.712 80.0667 270.712 82.968C270.712 87.4907 269.901 91.5013 268.28 95C266.744 98.4987 264.525 101.443 261.624 103.832C258.808 106.221 255.352 108.013 251.256 109.208C247.16 110.403 242.552 111 237.432 111H197.112V14.488Z" fill="black"/>
<path d="M307.625 62.744C307.625 66.584 308.35 70.1253 309.801 73.368C311.252 76.6107 313.214 79.4267 315.689 81.816C318.164 84.2053 321.022 86.0827 324.265 87.448C327.593 88.728 331.092 89.368 334.761 89.368C338.43 89.368 341.886 88.728 345.129 87.448C348.457 86.0827 351.358 84.2053 353.833 81.816C356.393 79.4267 358.398 76.6107 359.849 73.368C361.3 70.1253 362.025 66.584 362.025 62.744C362.025 58.904 361.3 55.3627 359.849 52.12C358.398 48.8773 356.393 46.0613 353.833 43.672C351.358 41.2827 348.457 39.448 345.129 38.168C341.886 36.8027 338.43 36.12 334.761 36.12C331.092 36.12 327.593 36.8027 324.265 38.168C321.022 39.448 318.164 41.2827 315.689 43.672C313.214 46.0613 311.252 48.8773 309.801 52.12C308.35 55.3627 307.625 58.904 307.625 62.744ZM281.385 62.744C281.385 55.576 282.708 48.92 285.353 42.776C287.998 36.5467 291.668 31.128 296.361 26.52C301.054 21.912 306.644 18.328 313.129 15.768C319.7 13.1227 326.91 11.8 334.761 11.8C342.526 11.8 349.694 13.1227 356.265 15.768C362.836 18.328 368.468 21.912 373.161 26.52C377.94 31.128 381.652 36.5467 384.297 42.776C386.942 48.92 388.265 55.576 388.265 62.744C388.265 69.912 386.942 76.6107 384.297 82.84C381.652 88.984 377.94 94.36 373.161 98.968C368.468 103.576 362.836 107.203 356.265 109.848C349.694 112.408 342.526 113.688 334.761 113.688C326.91 113.688 319.7 112.408 313.129 109.848C306.644 107.203 301.054 103.576 296.361 98.968C291.668 94.36 287.998 88.984 285.353 82.84C282.708 76.6107 281.385 69.912 281.385 62.744Z" fill="black"/>
<path d="M420.485 59.544L390.405 14.488H421.381L434.437 39.448L450.565 14.488H481.541L449.669 59.544L485.637 111H455.045L435.717 79.512L413.061 111H382.725L420.485 59.544Z" fill="black"/>
<path d="M514.4 57.624H519.136C524.085 57.624 527.883 56.6 530.528 54.552C533.173 52.504 534.496 49.56 534.496 45.72C534.496 41.88 533.173 38.936 530.528 36.888C527.883 34.84 524.085 33.816 519.136 33.816H514.4V57.624ZM569.568 111H538.336L514.4 73.88V111H489.312V14.488H528.352C533.728 14.488 538.421 15.2987 542.432 16.92C546.443 18.456 549.728 20.5893 552.288 23.32C554.933 26.0507 556.896 29.208 558.176 32.792C559.541 36.376 560.224 40.216 560.224 44.312C560.224 51.6507 558.432 57.624 554.848 62.232C551.349 66.7547 546.144 69.8267 539.232 71.448L569.568 111Z" fill="black"/>
<path d="M605.15 58.776H613.47C622.686 58.776 627.294 54.7653 627.294 46.744C627.294 38.7227 622.686 34.712 613.47 34.712H605.15V58.776ZM605.15 111H580.062V14.488H619.998C630.835 14.488 639.113 17.304 644.83 22.936C650.633 28.568 653.534 36.504 653.534 46.744C653.534 56.984 650.633 64.92 644.83 70.552C639.113 76.184 630.835 79 619.998 79H605.15V111Z" fill="black"/>
</svg>
