<svg viewBox="0 0 1146 295" fill="none">
<path d="M484.256 116.536C499.872 124.984 509.088 140.344 509.088 159.544C509.088 188.216 483.744 211.256 452.512 211.256H376.48V32.056H450.464C481.44 32.056 504.48 51.768 504.48 78.136C504.48 93.496 496.8 107.832 484.256 116.536ZM466.848 84.024C466.848 72.76 458.912 65.08 446.88 65.08H414.368V103.224H446.88C458.912 103.224 466.848 95.288 466.848 84.024ZM414.368 175.672H448.928C461.728 175.672 470.176 167.224 470.176 155.448C470.176 143.928 461.728 135.48 448.928 135.48H414.368V175.672ZM603.706 215.096C560.954 215.096 528.954 183.608 528.954 141.88C528.954 100.152 560.954 68.92 603.706 68.92C646.458 68.92 678.458 100.152 678.458 141.88C678.458 183.608 646.458 215.096 603.706 215.096ZM603.706 179.768C625.21 179.768 640.57 164.408 640.57 141.88C640.57 119.608 625.21 103.992 603.706 103.992C582.202 103.992 566.842 119.608 566.842 141.88C566.842 164.408 582.202 179.768 603.706 179.768ZM773.398 138.296L820.758 211H778.518L751.126 165.432L723.222 211H682.006L728.854 140.088L685.078 73.016H727.318L751.126 112.952L776.982 73.016H817.942L773.398 138.296ZM978.946 211L945.922 211.256L907.266 144.696H873.218V211.256H844.034V32.056H913.666C948.226 32.056 973.826 55.608 973.826 88.632C973.826 112.952 959.234 132.408 937.474 140.6L978.946 211ZM911.874 59.448H873.218V117.304H911.874C931.33 117.304 943.874 105.272 943.874 88.376C943.874 71.736 931.33 59.448 911.874 59.448ZM1010.78 31.8L1076.83 32.056C1111.65 32.056 1138.02 57.144 1138.02 91.192C1138.02 124.984 1111.9 150.328 1076.83 150.328H1039.97V211H1010.78V31.8ZM1039.97 122.424H1075.55C1094.75 122.424 1108.06 109.112 1108.06 91.192C1108.06 73.016 1094.75 59.704 1075.55 59.704H1039.97V122.424Z" fill="#111111"/>
<path d="M166.999 114.021L4.21007 34.2312C1.80432 33.0284 0 34.2312 0 36.8374V208.244C0 210.85 1.80432 213.857 4.21007 215.06L166.999 294.85C167.199 295.05 167.6 295.05 168.001 294.85L330.79 215.06C333.196 213.857 335 210.85 335 208.244V36.8374C335 34.2312 333.196 33.0284 330.79 34.2312L168.001 114.021C167.801 114.221 167.4 114.221 166.999 114.021ZM281.272 172.559C281.272 175.166 279.467 178.173 277.062 179.376L168.001 232.903C167.801 233.103 167.4 233.103 166.999 232.903L57.9384 179.376C55.7331 178.173 53.7283 175.166 53.7283 172.559V121.438C53.7283 118.832 55.5326 117.629 57.9384 118.832L166.999 172.359C167.199 172.559 167.6 172.559 168.001 172.359L277.062 118.832C279.467 117.629 281.272 118.832 281.272 121.438V172.559ZM167.199 63.5007L105.853 33.8303C103.447 32.6274 103.447 30.8232 105.853 29.8208L167.199 0.150357C167.4 -0.0501189 167.801 -0.0501189 168.202 0.150357L229.548 29.8208C231.954 31.0236 231.954 32.8279 229.548 33.8303L168.202 63.5007C167.801 63.7011 167.4 63.7011 167.199 63.5007Z" fill="#111111"/>
<path d="M166.999 114.021L4.21007 34.2312C1.80432 33.0284 0 34.2312 0 36.8374V208.244C0 210.85 1.80432 213.857 4.21007 215.06L166.999 294.85C167.199 295.05 167.6 295.05 168.001 294.85L330.79 215.06C333.196 213.857 335 210.85 335 208.244V36.8374C335 34.2312 333.196 33.0284 330.79 34.2312L168.001 114.021C167.801 114.221 167.4 114.221 166.999 114.021ZM281.272 172.559C281.272 175.166 279.467 178.173 277.062 179.376L168.001 232.903C167.801 233.103 167.4 233.103 166.999 232.903L57.9384 179.376C55.7331 178.173 53.7283 175.166 53.7283 172.559V121.438C53.7283 118.832 55.5326 117.629 57.9384 118.832L166.999 172.359C167.199 172.559 167.6 172.559 168.001 172.359L277.062 118.832C279.467 117.629 281.272 118.832 281.272 121.438V172.559ZM167.199 63.5007L105.853 33.8303C103.447 32.6274 103.447 30.8232 105.853 29.8208L167.199 0.150357C167.4 -0.0501189 167.801 -0.0501189 168.202 0.150357L229.548 29.8208C231.954 31.0236 231.954 32.8279 229.548 33.8303L168.202 63.5007C167.801 63.7011 167.4 63.7011 167.199 63.5007Z" fill="#3966F8"/>
</svg>
