<svg width="168" height="148" viewBox="0 0 168 148" fill="none" xmlns="http://www.w3.org/2000/svg">
<path d="M83.3 56.875L2.10001 17.075C0.900006 16.475 0 17.075 0 18.375V103.875C0 105.175 0.900006 106.675 2.10001 107.275L83.3 147.075C83.4 147.175 83.6 147.175 83.8 147.075L165 107.275C166.2 106.675 167.1 105.175 167.1 103.875V18.375C167.1 17.075 166.2 16.475 165 17.075L83.8 56.875C83.7 56.975 83.5 56.975 83.3 56.875ZM140.3 86.075C140.3 87.375 139.4 88.875 138.2 89.475L83.8 116.175C83.7 116.275 83.5 116.275 83.3 116.175L28.9 89.475C27.8 88.875 26.8 87.375 26.8 86.075V60.575C26.8 59.275 27.7 58.675 28.9 59.275L83.3 85.975C83.4 86.075 83.6 86.075 83.8 85.975L138.2 59.275C139.4 58.675 140.3 59.275 140.3 60.575V86.075ZM83.4 31.675L52.8 16.875C51.6 16.275 51.6 15.375 52.8 14.875L83.4 0.075C83.5 -0.025 83.7 -0.025 83.9 0.075L114.5 14.875C115.7 15.475 115.7 16.375 114.5 16.875L83.9 31.675C83.7 31.775 83.5 31.775 83.4 31.675Z" fill="#E50044"/>
</svg>
