<svg width="1626" height="316" viewBox="0 0 1626 316" fill="none" xmlns="http://www.w3.org/2000/svg">
<path d="M488.56 139.536C505.456 147.472 515.952 163.6 515.952 183.056C515.952 212.24 490.864 234.256 457.84 234.256H375.152V55.056H456.048C487.792 55.056 511.088 74.256 511.088 100.88C511.088 116.752 502.128 131.088 488.56 139.536ZM464.24 109.072C464.24 99.6 457.84 93.456 447.6 93.456H422.512V124.688H447.6C457.84 124.688 464.24 118.288 464.24 109.072ZM422.512 193.552H449.392C460.144 193.552 467.056 186.896 467.056 177.168C467.056 167.696 460.144 161.04 449.392 161.04H422.512V193.552ZM631.246 238.608C573.646 238.608 532.686 199.184 532.686 144.656C532.686 89.872 573.646 50.448 631.246 50.448C688.846 50.448 729.806 89.616 729.806 144.656C729.806 199.44 688.846 238.608 631.246 238.608ZM631.246 192.784C658.638 192.784 678.35 172.56 678.35 144.656C678.35 116.496 658.638 96.272 631.246 96.272C604.11 96.272 583.886 116.752 583.886 144.656C583.886 172.304 604.11 192.784 631.246 192.784ZM844.23 141.84L898.246 234H842.438L812.998 178.96L783.046 234H726.982L780.998 140.816L730.054 55.056H785.862L812.742 105.744L839.622 55.056H894.662L844.23 141.84ZM1055.45 234L1022.42 234.256L983.766 167.696H949.718V234.256H920.534V55.056H990.166C1024.73 55.056 1050.33 78.608 1050.33 111.632C1050.33 135.952 1035.73 155.408 1013.97 163.6L1055.45 234ZM988.374 82.448H949.718V140.304H988.374C1007.83 140.304 1020.37 128.272 1020.37 111.376C1020.37 94.736 1007.83 82.448 988.374 82.448ZM1087.28 54.8L1153.33 55.056C1188.15 55.056 1214.52 80.144 1214.52 114.192C1214.52 147.984 1188.4 173.328 1153.33 173.328H1116.47V234H1087.28V54.8ZM1116.47 145.424H1152.05C1171.25 145.424 1184.56 132.112 1184.56 114.192C1184.56 96.016 1171.25 82.704 1152.05 82.704H1116.47V145.424Z" fill="black"/>
<path d="M488.56 139.536C505.456 147.472 515.952 163.6 515.952 183.056C515.952 212.24 490.864 234.256 457.84 234.256H375.152V55.056H456.048C487.792 55.056 511.088 74.256 511.088 100.88C511.088 116.752 502.128 131.088 488.56 139.536ZM464.24 109.072C464.24 99.6 457.84 93.456 447.6 93.456H422.512V124.688H447.6C457.84 124.688 464.24 118.288 464.24 109.072ZM422.512 193.552H449.392C460.144 193.552 467.056 186.896 467.056 177.168C467.056 167.696 460.144 161.04 449.392 161.04H422.512V193.552ZM631.246 238.608C573.646 238.608 532.686 199.184 532.686 144.656C532.686 89.872 573.646 50.448 631.246 50.448C688.846 50.448 729.806 89.616 729.806 144.656C729.806 199.44 688.846 238.608 631.246 238.608ZM631.246 192.784C658.638 192.784 678.35 172.56 678.35 144.656C678.35 116.496 658.638 96.272 631.246 96.272C604.11 96.272 583.886 116.752 583.886 144.656C583.886 172.304 604.11 192.784 631.246 192.784ZM844.23 141.84L898.246 234H842.438L812.998 178.96L783.046 234H726.982L780.998 140.816L730.054 55.056H785.862L812.742 105.744L839.622 55.056H894.662L844.23 141.84ZM1055.45 234L1022.42 234.256L983.766 167.696H949.718V234.256H920.534V55.056H990.166C1024.73 55.056 1050.33 78.608 1050.33 111.632C1050.33 135.952 1035.73 155.408 1013.97 163.6L1055.45 234ZM988.374 82.448H949.718V140.304H988.374C1007.83 140.304 1020.37 128.272 1020.37 111.376C1020.37 94.736 1007.83 82.448 988.374 82.448ZM1087.28 54.8L1153.33 55.056C1188.15 55.056 1214.52 80.144 1214.52 114.192C1214.52 147.984 1188.4 173.328 1153.33 173.328H1116.47V234H1087.28V54.8ZM1116.47 145.424H1152.05C1171.25 145.424 1184.56 132.112 1184.56 114.192C1184.56 96.016 1171.25 82.704 1152.05 82.704H1116.47V145.424Z" fill="black"/>
<path d="M166.999 135.021L4.21007 55.2312C1.80432 54.0284 0 55.2312 0 57.8374V229.244C0 231.85 1.80432 234.857 4.21007 236.06L166.999 315.85C167.199 316.05 167.6 316.05 168.001 315.85L330.79 236.06C333.196 234.857 335 231.85 335 229.244V57.8374C335 55.2312 333.196 54.0284 330.79 55.2312L168.001 135.021C167.801 135.221 167.4 135.221 166.999 135.021ZM281.272 193.559C281.272 196.166 279.467 199.173 277.062 200.376L168.001 253.903C167.801 254.103 167.4 254.103 166.999 253.903L57.9384 200.376C55.7331 199.173 53.7283 196.166 53.7283 193.559V142.438C53.7283 139.832 55.5326 138.629 57.9384 139.832L166.999 193.359C167.199 193.559 167.6 193.559 168.001 193.359L277.062 139.832C279.467 138.629 281.272 139.832 281.272 142.438V193.559ZM167.199 84.5007L105.853 54.8303C103.447 53.6274 103.447 51.8232 105.853 50.8208L167.199 21.1504C167.4 20.9499 167.801 20.9499 168.202 21.1504L229.548 50.8208C231.954 52.0236 231.954 53.8279 229.548 54.8303L168.202 84.5007C167.801 84.7011 167.4 84.7011 167.199 84.5007Z" fill="#E50044"/>
<path d="M166.999 135.021L4.21007 55.2312C1.80432 54.0284 0 55.2312 0 57.8374V229.244C0 231.85 1.80432 234.857 4.21007 236.06L166.999 315.85C167.199 316.05 167.6 316.05 168.001 315.85L330.79 236.06C333.196 234.857 335 231.85 335 229.244V57.8374C335 55.2312 333.196 54.0284 330.79 55.2312L168.001 135.021C167.801 135.221 167.4 135.221 166.999 135.021ZM281.272 193.559C281.272 196.166 279.467 199.173 277.062 200.376L168.001 253.903C167.801 254.103 167.4 254.103 166.999 253.903L57.9384 200.376C55.7331 199.173 53.7283 196.166 53.7283 193.559V142.438C53.7283 139.832 55.5326 138.629 57.9384 139.832L166.999 193.359C167.199 193.559 167.6 193.559 168.001 193.359L277.062 139.832C279.467 138.629 281.272 139.832 281.272 142.438V193.559ZM167.199 84.5007L105.853 54.8303C103.447 53.6274 103.447 51.8232 105.853 50.8208L167.199 21.1504C167.4 20.9499 167.801 20.9499 168.202 21.1504L229.548 50.8208C231.954 52.0236 231.954 53.8279 229.548 54.8303L168.202 84.5007C167.801 84.7011 167.4 84.7011 167.199 84.5007Z" fill="#E50044"/>
</svg>
