<svg viewBox="0 0 335 295">
<path d="M166.999 114.021L4.21007 34.2312C1.80432 33.0284 0 34.2312 0 36.8374V208.244C0 210.85 1.80432 213.857 4.21007 215.06L166.999 294.85C167.199 295.05 167.6 295.05 168.001 294.85L330.79 215.06C333.196 213.857 335 210.85 335 208.244V36.8374C335 34.2312 333.196 33.0284 330.79 34.2312L168.001 114.021C167.801 114.221 167.4 114.221 166.999 114.021ZM281.272 172.559C281.272 175.166 279.467 178.173 277.062 179.376L168.001 232.903C167.801 233.103 167.4 233.103 166.999 232.903L57.9384 179.376C55.7331 178.173 53.7283 175.166 53.7283 172.559V121.438C53.7283 118.832 55.5326 117.629 57.9384 118.832L166.999 172.359C167.199 172.559 167.6 172.559 168.001 172.359L277.062 118.832C279.467 117.629 281.272 118.832 281.272 121.438V172.559ZM167.199 63.5007L105.853 33.8303C103.447 32.6274 103.447 30.8232 105.853 29.8208L167.199 0.150357C167.4 -0.0501189 167.801 -0.0501189 168.202 0.150357L229.548 29.8208C231.954 31.0236 231.954 32.8279 229.548 33.8303L168.202 63.5007C167.801 63.7011 167.4 63.7011 167.199 63.5007Z"/>
</svg>
