<svg viewBox="0 0 763 185">
<path d="M108.256 85.536C123.872 93.984 133.088 109.344 133.088 128.544C133.088 157.216 107.744 180.256 76.512 180.256H0.480001V1.05598H74.464C105.44 1.05598 128.48 20.768 128.48 47.136C128.48 62.496 120.8 76.832 108.256 85.536ZM90.848 53.024C90.848 41.76 82.912 34.08 70.88 34.08H38.368V72.224H70.88C82.912 72.224 90.848 64.288 90.848 53.024ZM38.368 144.672H72.928C85.728 144.672 94.176 136.224 94.176 124.448C94.176 112.928 85.728 104.48 72.928 104.48H38.368V144.672ZM227.706 184.096C184.954 184.096 152.954 152.608 152.954 110.88C152.954 69.152 184.954 37.92 227.706 37.92C270.458 37.92 302.458 69.152 302.458 110.88C302.458 152.608 270.458 184.096 227.706 184.096ZM227.706 148.768C249.21 148.768 264.57 133.408 264.57 110.88C264.57 88.608 249.21 72.992 227.706 72.992C206.202 72.992 190.842 88.608 190.842 110.88C190.842 133.408 206.202 148.768 227.706 148.768ZM397.398 107.296L444.758 180H402.518L375.126 134.432L347.222 180H306.006L352.854 109.088L309.078 42.016H351.318L375.126 81.952L400.982 42.016H441.942L397.398 107.296ZM602.946 180L569.922 180.256L531.266 113.696H497.218V180.256H468.034V1.05598H537.666C572.226 1.05598 597.826 24.608 597.826 57.632C597.826 81.952 583.234 101.408 561.474 109.6L602.946 180ZM535.874 28.448H497.218V86.304H535.874C555.33 86.304 567.874 74.272 567.874 57.376C567.874 40.736 555.33 28.448 535.874 28.448ZM634.784 0.799988L700.832 1.05598C735.648 1.05598 762.016 26.144 762.016 60.192C762.016 93.984 735.904 119.328 700.832 119.328H663.968V180H634.784V0.799988ZM663.968 91.424H699.552C718.752 91.424 732.064 78.112 732.064 60.192C732.064 42.016 718.752 28.704 699.552 28.704H663.968V91.424Z" />
</svg>
